<svg width="40" height="40" viewBox="0 0 40 40" fill="none" xmlns="http://www.w3.org/2000/svg">
<path fill-rule="evenodd" clip-rule="evenodd" d="M20 0C8.95431 0 0 8.95431 0 20C0 31.0457 8.95431 40 20 40C31.0457 40 40 31.0457 40 20C40 8.95431 31.0457 0 20 0ZM21.6296 26.3139C21.4324 26.5218 21.0474 26.5638 21.0474 26.5638H19.7723C19.7723 26.5638 16.9593 26.7297 14.4812 24.1978C11.7787 21.4355 9.39242 15.955 9.39242 15.955C9.39242 15.955 9.25469 15.5955 9.4039 15.4224C9.57189 15.2268 10.0299 15.2145 10.0299 15.2145L13.0778 15.195C13.0778 15.195 13.3647 15.2411 13.5703 15.3896C13.7403 15.5125 13.8353 15.7409 13.8353 15.7409C13.8353 15.7409 14.3278 16.9638 14.9799 18.07C16.2539 20.23 16.8466 20.7022 17.2785 20.4707C17.9088 20.1338 17.7199 17.4176 17.7199 17.4176C17.7199 17.4176 17.7314 16.4323 17.4027 15.9929C17.1481 15.6528 16.6681 15.5535 16.4563 15.5258C16.2842 15.5033 16.5659 15.1121 16.9311 14.9369C17.4799 14.6737 18.4482 14.6583 19.5928 14.6696C20.485 14.6788 20.7416 14.7331 21.0901 14.8161C21.899 15.0076 21.8737 15.6216 21.8192 16.9468C21.8029 17.3431 21.784 17.803 21.784 18.3342C21.784 18.4536 21.7805 18.5809 21.7768 18.7118C21.7579 19.3907 21.7362 20.1681 22.192 20.4574C22.4257 20.6049 22.9965 20.4789 24.4249 18.0987C25.1021 16.97 25.6092 15.6436 25.6092 15.6436C25.6092 15.6436 25.7208 15.407 25.893 15.3056C26.0693 15.2022 26.3072 15.2339 26.3072 15.2339L29.5147 15.2145C29.5147 15.2145 30.4788 15.1008 30.6342 15.5289C30.7981 15.9765 30.2743 17.0232 28.9637 18.7378C27.7206 20.3646 27.1156 20.9636 27.1712 21.4933C27.2117 21.8804 27.605 22.2305 28.3596 22.9176C29.9349 24.3533 30.3572 25.1086 30.4586 25.2901C30.4671 25.3051 30.4733 25.3162 30.4777 25.3235C31.1841 26.4736 29.6941 26.5638 29.6941 26.5638L26.8446 26.6027C26.8446 26.6027 26.2331 26.7215 25.4276 26.1787C25.0056 25.8946 24.5933 25.4305 24.2006 24.9886C23.6008 24.3136 23.0468 23.69 22.5739 23.8373C21.7798 24.0852 21.8038 25.7639 21.8038 25.7639C21.8038 25.7639 21.8101 26.1234 21.6296 26.3139Z" fill="#103F88"/>
</svg>
